Coordinates
version=1
nRows=4
nColumns=63
inDegrees=yes

Units are S.I. units (second, meters, Newtons, ...)
If the header above contains a line with 'inDegrees', this indicates whether rotational values are in degrees (yes) or radians (no).

endheader
time	pelvis_tilt	pelvis_list	pelvis_rotation	pelvis_tx	pelvis_ty	pelvis_tz	hip_flexion_r	hip_adduction_r	hip_rotation_r	knee_angle_r	knee_angle_r_beta	ankle_angle_r	subtalar_angle_r	mtp_angle_r	hip_flexion_l	hip_adduction_l	hip_rotation_l	knee_angle_l	knee_angle_l_beta	ankle_angle_l	subtalar_angle_l	mtp_angle_l	L5_S1_Flex_Ext	L5_S1_Lat_Bending	L5_S1_axial_rotation	L4_L5_Flex_Ext	L4_L5_Lat_Bending	L4_L5_axial_rotation	L3_L4_Flex_Ext	L3_L4_Lat_Bending	L3_L4_axial_rotation	L2_L3_Flex_Ext	L2_L3_Lat_Bending	L2_L3_axial_rotation	L1_L2_Flex_Ext	L1_L2_Lat_Bending	L1_L2_axial_rotation	L1_T12_Flex_Ext	L1_T12_Lat_Bending	L1_T12_axial_rotation	Abs_r3	Abs_r2	Abs_r1	Abs_t1	Abs_t2	neck_flexion	neck_bending	neck_rotation	arm_flex_r	arm_add_r	arm_rot_r	elbow_flex_r	pro_sup_r	wrist_flex_r	wrist_dev_r	arm_flex_l	arm_add_l	arm_rot_l	elbow_flex_l	pro_sup_l	wrist_flex_l	wrist_dev_l
      0.00000000	      4.02624108	     -3.88938053	     92.72168814	      0.22616036	      1.01328775	      0.43134977	      6.28234666	      4.57619003	      1.15864856	      7.77121117	      0.13563322	     26.09252311	     -7.42685338	      0.00000000	      3.80994851	     -3.54644840	      6.39371542	      2.37052149	      0.04137341	     26.45854681	     -3.94669963	      0.00000000	      0.26113153	      0.66936588	     -0.54479557	      0.48494736	      0.89025662	     -0.57884530	      0.42901298	      1.62749620	     -0.57884530	      0.29844722	      1.62749620	     -0.47669613	      0.24248674	      1.36497090	     -0.44264640	      0.14921055	      1.03684775	     -0.40859668	      1.86523638	      7.57200070	     -3.02998954	      0.00000000	      0.00000000	     27.46692451	      5.40801087	     15.44070562	     27.50131684	      1.77224269	    125.64952181	     36.32474153	     37.57899731	     -1.16432385	     13.62679477	     14.73815272	      1.82980396	     62.34626424	     37.28537821	     39.74059464	    -18.65170044	     26.62499555
      0.01666667	      3.90117567	     -3.95754496	     92.90394834	      0.22612316	      1.01353055	      0.43243637	      6.13164433	      4.51810681	      3.11121836	      7.05228538	      0.12308560	     25.31853288	    -10.71372425	      0.00000000	      4.10844980	     -3.41932610	      6.68322428	      2.22116633	      0.03876667	     27.17428378	     -2.67299485	      0.00000000	      0.26149648	      0.64223854	     -0.60266867	      0.48562512	      0.85417725	     -0.64033546	      0.42961257	      1.56153878	     -0.64033546	      0.29886433	      1.56153878	     -0.52733508	      0.24282563	      1.30965282	     -0.48966829	      0.14941909	      0.99482749	     -0.45200150	      1.86784322	      7.26513077	     -3.35186232	      0.00000000	      0.00000000	     27.45464599	      5.51653813	     14.87486878	     26.05750641	      2.07650396	    121.47913852	     34.13369105	     52.34043622	     -1.60611395	     13.36474950	     14.67184141	      1.48803649	     62.87210275	     37.19068475	     41.52276766	    -18.13007883	     25.74644441
      0.03333333	      3.82741191	     -4.01936382	     93.11548221	      0.22589037	      1.01358021	      0.43323022	      5.99757603	      4.42641658	      3.72425043	      6.55784911	      0.11445606	     25.06281009	    -11.86716211	      0.00000000	      4.37090163	     -3.34658750	      6.06883712	      2.19197858	      0.03825724	     27.79878986	     -0.67792340	      0.00000000	      0.26326255	      0.62660245	     -0.64963704	      0.48890488	      0.83338125	     -0.69023936	      0.43251405	      1.52352118	     -0.69023936	      0.30088277	      1.52352118	     -0.56843241	      0.24446560	      1.27776771	     -0.52783010	      0.15042822	      0.97060719	     -0.48722778	      1.88045808	      7.08825218	     -3.61308633	      0.00000000	      0.00000000	     27.45540970	      5.60165364	     14.52009094	     25.11936358	      2.14135149	    118.22062267	     32.97010683	     59.65190593	     -1.50363923	     13.46697044	     14.60888947	      1.26121817	     63.27453827	     37.24439724	     41.58128415	    -18.37406069	     24.88175030
      0.05000000	      3.74697367	     -4.07368077	     93.37156241	      0.22563119	      1.01350692	      0.43381417	      5.90087737	      4.30200025	      3.58974446	      6.28707853	      0.10973022	     25.12210308	    -11.84882724	      0.00000000	      4.60889552	     -3.27677176	      4.78982161	      2.27019022	      0.03962229	     28.29899741	      1.86828846	      0.00000000	      0.26630455	      0.61227309	     -0.70178669	      0.49455418	      0.81432321	     -0.74564836	      0.43751175	      1.48868079	     -0.74564836	      0.30435947	      1.48868079	     -0.61406335	      0.24729041	      1.24854729	     -0.57020168	      0.15216642	      0.94841102	     -0.52634002	      1.90218677	      6.92615565	     -3.90312702	      0.00000000	      0.00000000	     27.45458781	      5.78876475	     14.47539595	     24.90481305	      2.28841139	    117.47429512	     32.41930519	     59.14478026	     -1.15918589	     13.28556189	     14.62573378	      1.03112031	     63.72523450	     37.47323788	     40.86599540	    -19.18614112	     24.43792723
